<svg width="1920" height="1080" viewBox="0 0 1920 1080" fill="none" xmlns="http://www.w3.org/2000/svg">
<rect width="1920" height="1080" fill="#191F2B"/>
<rect x="317" y="190" width="900" height="700" rx="25" fill="#2D3748"/>
<path d="M492.712 263.906H486.072C485.882 262.817 485.533 261.852 485.024 261.011C484.515 260.159 483.882 259.437 483.124 258.845C482.367 258.253 481.503 257.809 480.532 257.513C479.573 257.206 478.537 257.052 477.425 257.052C475.448 257.052 473.696 257.549 472.169 258.543C470.642 259.526 469.446 260.97 468.582 262.876C467.718 264.77 467.286 267.084 467.286 269.818C467.286 272.6 467.718 274.944 468.582 276.849C469.458 278.743 470.654 280.176 472.169 281.146C473.696 282.105 475.442 282.585 477.407 282.585C478.496 282.585 479.514 282.442 480.461 282.158C481.42 281.862 482.278 281.43 483.036 280.862C483.805 280.294 484.45 279.596 484.971 278.767C485.504 277.938 485.871 276.991 486.072 275.926L492.712 275.962C492.464 277.69 491.925 279.312 491.097 280.827C490.28 282.342 489.209 283.679 487.883 284.839C486.557 285.988 485.006 286.887 483.231 287.538C481.455 288.178 479.484 288.497 477.318 288.497C474.122 288.497 471.269 287.757 468.76 286.278C466.25 284.798 464.274 282.661 462.83 279.868C461.385 277.074 460.663 273.724 460.663 269.818C460.663 265.9 461.391 262.55 462.847 259.768C464.303 256.975 466.286 254.838 468.795 253.359C471.305 251.879 474.146 251.139 477.318 251.139C479.342 251.139 481.224 251.423 482.964 251.991C484.705 252.56 486.255 253.394 487.616 254.495C488.978 255.584 490.096 256.922 490.972 258.508C491.86 260.082 492.44 261.881 492.712 263.906ZM518.507 261.633C518.341 260.082 517.643 258.875 516.412 258.011C515.193 257.147 513.606 256.714 511.653 256.714C510.28 256.714 509.102 256.922 508.12 257.336C507.137 257.75 506.386 258.312 505.865 259.023C505.344 259.733 505.078 260.544 505.066 261.455C505.066 262.213 505.238 262.87 505.581 263.426C505.936 263.982 506.415 264.456 507.019 264.847C507.623 265.225 508.291 265.545 509.025 265.805C509.759 266.066 510.499 266.285 511.245 266.462L514.654 267.315C516.027 267.634 517.347 268.066 518.613 268.611C519.892 269.155 521.034 269.842 522.04 270.67C523.058 271.499 523.863 272.499 524.455 273.671C525.047 274.843 525.343 276.216 525.343 277.79C525.343 279.921 524.798 281.797 523.709 283.419C522.62 285.029 521.046 286.29 518.986 287.201C516.939 288.101 514.459 288.55 511.547 288.55C508.718 288.55 506.261 288.112 504.178 287.237C502.107 286.361 500.485 285.082 499.313 283.401C498.153 281.72 497.526 279.673 497.431 277.258H503.912C504.006 278.524 504.397 279.578 505.084 280.418C505.77 281.259 506.664 281.886 507.765 282.3C508.877 282.715 510.12 282.922 511.493 282.922C512.926 282.922 514.18 282.709 515.258 282.283C516.347 281.845 517.199 281.241 517.814 280.472C518.43 279.69 518.744 278.779 518.756 277.737C518.744 276.79 518.465 276.009 517.921 275.393C517.376 274.766 516.613 274.245 515.631 273.831C514.66 273.405 513.523 273.026 512.221 272.695L508.084 271.629C505.09 270.86 502.722 269.694 500.982 268.131C499.254 266.557 498.39 264.468 498.39 261.864C498.39 259.721 498.97 257.845 500.13 256.235C501.302 254.625 502.894 253.376 504.906 252.489C506.918 251.589 509.197 251.139 511.742 251.139C514.323 251.139 516.583 251.589 518.525 252.489C520.478 253.376 522.011 254.613 523.123 256.2C524.236 257.774 524.81 259.585 524.846 261.633H518.507ZM550.978 261.633C550.812 260.082 550.114 258.875 548.882 258.011C547.663 257.147 546.077 256.714 544.124 256.714C542.751 256.714 541.573 256.922 540.591 257.336C539.608 257.75 538.856 258.312 538.336 259.023C537.815 259.733 537.548 260.544 537.537 261.455C537.537 262.213 537.708 262.87 538.051 263.426C538.407 263.982 538.886 264.456 539.49 264.847C540.093 265.225 540.762 265.545 541.496 265.805C542.23 266.066 542.97 266.285 543.716 266.462L547.125 267.315C548.498 267.634 549.818 268.066 551.084 268.611C552.363 269.155 553.505 269.842 554.511 270.67C555.529 271.499 556.334 272.499 556.926 273.671C557.518 274.843 557.814 276.216 557.814 277.79C557.814 279.921 557.269 281.797 556.18 283.419C555.091 285.029 553.517 286.29 551.457 287.201C549.409 288.101 546.929 288.55 544.017 288.55C541.188 288.55 538.732 288.112 536.649 287.237C534.577 286.361 532.956 285.082 531.784 283.401C530.624 281.72 529.996 279.673 529.902 277.258H536.382C536.477 278.524 536.868 279.578 537.554 280.418C538.241 281.259 539.135 281.886 540.235 282.3C541.348 282.715 542.591 282.922 543.964 282.922C545.396 282.922 546.651 282.709 547.728 282.283C548.817 281.845 549.67 281.241 550.285 280.472C550.901 279.69 551.214 278.779 551.226 277.737C551.214 276.79 550.936 276.009 550.392 275.393C549.847 274.766 549.084 274.245 548.101 273.831C547.131 273.405 545.994 273.026 544.692 272.695L540.555 271.629C537.56 270.86 535.193 269.694 533.453 268.131C531.725 266.557 530.86 264.468 530.86 261.864C530.86 259.721 531.44 257.845 532.6 256.235C533.772 254.625 535.364 253.376 537.377 252.489C539.389 251.589 541.668 251.139 544.213 251.139C546.793 251.139 549.054 251.589 550.995 252.489C552.949 253.376 554.481 254.613 555.594 256.2C556.707 257.774 557.281 259.585 557.316 261.633H550.978ZM576.089 288V251.636H589.725C592.519 251.636 594.862 252.157 596.756 253.199C598.662 254.241 600.1 255.673 601.071 257.496C602.053 259.307 602.545 261.366 602.545 263.675C602.545 266.007 602.053 268.078 601.071 269.889C600.088 271.7 598.638 273.127 596.721 274.168C594.803 275.198 592.442 275.713 589.636 275.713H580.599V270.298H588.748C590.382 270.298 591.72 270.013 592.761 269.445C593.803 268.877 594.572 268.096 595.069 267.102C595.578 266.107 595.833 264.965 595.833 263.675C595.833 262.384 595.578 261.248 595.069 260.266C594.572 259.283 593.797 258.52 592.743 257.975C591.702 257.419 590.358 257.141 588.713 257.141H582.676V288H576.089ZM607.982 288V260.727H614.214V265.273H614.499C614.996 263.698 615.848 262.485 617.055 261.633C618.275 260.769 619.665 260.337 621.228 260.337C621.583 260.337 621.98 260.354 622.418 260.39C622.867 260.414 623.24 260.455 623.536 260.514V266.427C623.264 266.332 622.832 266.249 622.24 266.178C621.66 266.095 621.098 266.054 620.553 266.054C619.381 266.054 618.328 266.308 617.393 266.817C616.469 267.315 615.741 268.007 615.209 268.895C614.676 269.783 614.41 270.807 614.41 271.967V288H607.982ZM638.58 288.533C635.916 288.533 633.608 287.947 631.655 286.775C629.702 285.603 628.187 283.964 627.11 281.857C626.044 279.75 625.512 277.287 625.512 274.47C625.512 271.653 626.044 269.185 627.11 267.066C628.187 264.947 629.702 263.302 631.655 262.13C633.608 260.958 635.916 260.372 638.58 260.372C641.243 260.372 643.551 260.958 645.504 262.13C647.458 263.302 648.967 264.947 650.032 267.066C651.109 269.185 651.648 271.653 651.648 274.47C651.648 277.287 651.109 279.75 650.032 281.857C648.967 283.964 647.458 285.603 645.504 286.775C643.551 287.947 641.243 288.533 638.58 288.533ZM638.615 283.384C640.059 283.384 641.267 282.987 642.237 282.194C643.208 281.389 643.93 280.312 644.404 278.962C644.889 277.613 645.132 276.11 645.132 274.452C645.132 272.783 644.889 271.274 644.404 269.925C643.93 268.563 643.208 267.48 642.237 266.675C641.267 265.871 640.059 265.468 638.615 265.468C637.136 265.468 635.905 265.871 634.922 266.675C633.951 267.48 633.223 268.563 632.738 269.925C632.265 271.274 632.028 272.783 632.028 274.452C632.028 276.11 632.265 277.613 632.738 278.962C633.223 280.312 633.951 281.389 634.922 282.194C635.905 282.987 637.136 283.384 638.615 283.384ZM657.103 298.227V260.727H663.424V265.237H663.797C664.129 264.574 664.596 263.87 665.2 263.124C665.804 262.367 666.62 261.722 667.65 261.189C668.68 260.644 669.994 260.372 671.592 260.372C673.699 260.372 675.599 260.911 677.292 261.988C678.996 263.053 680.346 264.634 681.34 266.729C682.346 268.812 682.849 271.369 682.849 274.399C682.849 277.394 682.358 279.939 681.375 282.034C680.393 284.129 679.055 285.727 677.363 286.828C675.67 287.929 673.752 288.479 671.61 288.479C670.047 288.479 668.751 288.219 667.721 287.698C666.691 287.177 665.863 286.55 665.235 285.816C664.62 285.07 664.141 284.366 663.797 283.703H663.531V298.227H657.103ZM663.407 274.364C663.407 276.127 663.655 277.672 664.152 278.998C664.661 280.324 665.389 281.359 666.336 282.105C667.295 282.839 668.455 283.206 669.816 283.206C671.237 283.206 672.426 282.827 673.385 282.07C674.344 281.3 675.066 280.253 675.551 278.927C676.049 277.589 676.297 276.068 676.297 274.364C676.297 272.671 676.055 271.168 675.569 269.854C675.084 268.54 674.362 267.51 673.403 266.764C672.444 266.018 671.249 265.646 669.816 265.646C668.443 265.646 667.277 266.007 666.319 266.729C665.36 267.451 664.632 268.463 664.135 269.765C663.649 271.067 663.407 272.6 663.407 274.364ZM700.427 288.533C697.693 288.533 695.331 287.964 693.343 286.828C691.366 285.68 689.845 284.058 688.779 281.963C687.714 279.856 687.181 277.376 687.181 274.523C687.181 271.718 687.714 269.256 688.779 267.137C689.857 265.006 691.36 263.349 693.289 262.165C695.219 260.97 697.486 260.372 700.09 260.372C701.771 260.372 703.357 260.644 704.848 261.189C706.352 261.722 707.677 262.55 708.826 263.675C709.986 264.799 710.897 266.232 711.56 267.972C712.223 269.7 712.554 271.759 712.554 274.151V276.121H690.2V271.789H706.393C706.381 270.558 706.115 269.463 705.594 268.504C705.073 267.534 704.345 266.77 703.41 266.214C702.487 265.657 701.41 265.379 700.179 265.379C698.865 265.379 697.711 265.699 696.716 266.338C695.722 266.965 694.947 267.794 694.39 268.824C693.846 269.842 693.568 270.96 693.556 272.18V275.962C693.556 277.548 693.846 278.909 694.426 280.045C695.006 281.17 695.817 282.034 696.858 282.638C697.9 283.23 699.119 283.526 700.516 283.526C701.451 283.526 702.297 283.395 703.055 283.135C703.813 282.863 704.47 282.466 705.026 281.945C705.582 281.424 706.002 280.779 706.287 280.01L712.288 280.685C711.909 282.271 711.187 283.656 710.122 284.839C709.068 286.011 707.719 286.923 706.074 287.574C704.428 288.213 702.546 288.533 700.427 288.533ZM717.992 288V260.727H724.224V265.273H724.508C725.006 263.698 725.858 262.485 727.065 261.633C728.284 260.769 729.675 260.337 731.238 260.337C731.593 260.337 731.989 260.354 732.427 260.39C732.877 260.414 733.25 260.455 733.546 260.514V266.427C733.274 266.332 732.842 266.249 732.25 266.178C731.67 266.095 731.108 266.054 730.563 266.054C729.391 266.054 728.338 266.308 727.403 266.817C726.479 267.315 725.751 268.007 725.219 268.895C724.686 269.783 724.42 270.807 724.42 271.967V288H717.992ZM752.9 260.727V265.699H737.221V260.727H752.9ZM741.092 254.193H747.52V279.797C747.52 280.661 747.65 281.324 747.91 281.786C748.183 282.235 748.538 282.543 748.976 282.709C749.414 282.875 749.899 282.957 750.432 282.957C750.834 282.957 751.201 282.928 751.532 282.869C751.876 282.809 752.136 282.756 752.314 282.709L753.397 287.734C753.054 287.852 752.562 287.982 751.923 288.124C751.296 288.266 750.526 288.349 749.615 288.373C748.005 288.42 746.555 288.178 745.265 287.645C743.974 287.1 742.951 286.26 742.193 285.124C741.447 283.987 741.08 282.567 741.092 280.862V254.193ZM762.27 298.227C761.394 298.227 760.583 298.156 759.838 298.014C759.104 297.884 758.518 297.73 758.08 297.553L759.571 292.545C760.507 292.818 761.341 292.948 762.075 292.936C762.809 292.924 763.454 292.693 764.01 292.244C764.578 291.806 765.058 291.072 765.449 290.042L765.999 288.568L756.109 260.727H762.927L769.213 281.324H769.497L775.8 260.727H782.636L771.716 291.303C771.207 292.747 770.533 293.984 769.692 295.013C768.852 296.055 767.822 296.848 766.603 297.393C765.395 297.949 763.951 298.227 762.27 298.227ZM830.896 263.906H824.255C824.066 262.817 823.717 261.852 823.208 261.011C822.699 260.159 822.065 259.437 821.308 258.845C820.55 258.253 819.686 257.809 818.716 257.513C817.757 257.206 816.721 257.052 815.608 257.052C813.632 257.052 811.88 257.549 810.353 258.543C808.826 259.526 807.63 260.97 806.766 262.876C805.902 264.77 805.47 267.084 805.47 269.818C805.47 272.6 805.902 274.944 806.766 276.849C807.642 278.743 808.837 280.176 810.353 281.146C811.88 282.105 813.626 282.585 815.591 282.585C816.68 282.585 817.698 282.442 818.645 282.158C819.603 281.862 820.462 281.43 821.219 280.862C821.989 280.294 822.634 279.596 823.154 278.767C823.687 277.938 824.054 276.991 824.255 275.926L830.896 275.962C830.647 277.69 830.109 279.312 829.28 280.827C828.463 282.342 827.392 283.679 826.066 284.839C824.741 285.988 823.19 286.887 821.414 287.538C819.639 288.178 817.668 288.497 815.502 288.497C812.306 288.497 809.453 287.757 806.944 286.278C804.434 284.798 802.457 282.661 801.013 279.868C799.569 277.074 798.847 273.724 798.847 269.818C798.847 265.9 799.575 262.55 801.031 259.768C802.487 256.975 804.47 254.838 806.979 253.359C809.489 251.879 812.329 251.139 815.502 251.139C817.526 251.139 819.408 251.423 821.148 251.991C822.888 252.56 824.439 253.394 825.8 254.495C827.161 255.584 828.28 256.922 829.156 258.508C830.044 260.082 830.624 261.881 830.896 263.906ZM854.027 276.53V260.727H860.455V288H854.222V283.153H853.938C853.323 284.68 852.311 285.929 850.902 286.899C849.505 287.87 847.783 288.355 845.735 288.355C843.948 288.355 842.368 287.959 840.994 287.165C839.633 286.361 838.568 285.195 837.798 283.668C837.029 282.129 836.644 280.27 836.644 278.092V260.727H843.072V277.098C843.072 278.826 843.545 280.199 844.492 281.217C845.439 282.235 846.682 282.744 848.221 282.744C849.168 282.744 850.085 282.513 850.973 282.052C851.861 281.59 852.589 280.904 853.157 279.992C853.737 279.069 854.027 277.915 854.027 276.53ZM888.62 267.936L882.76 268.575C882.595 267.983 882.305 267.427 881.89 266.906C881.488 266.385 880.943 265.965 880.257 265.646C879.57 265.326 878.73 265.166 877.735 265.166C876.398 265.166 875.273 265.456 874.362 266.036C873.462 266.616 873.018 267.368 873.03 268.291C873.018 269.084 873.308 269.729 873.9 270.227C874.504 270.724 875.498 271.132 876.883 271.452L881.535 272.446C884.116 273.002 886.033 273.884 887.288 275.092C888.555 276.299 889.194 277.879 889.206 279.832C889.194 281.549 888.691 283.064 887.696 284.378C886.714 285.68 885.347 286.698 883.595 287.432C881.843 288.166 879.831 288.533 877.558 288.533C874.22 288.533 871.533 287.834 869.497 286.438C867.461 285.029 866.248 283.07 865.857 280.56L872.125 279.957C872.409 281.188 873.012 282.117 873.936 282.744C874.859 283.372 876.06 283.685 877.54 283.685C879.067 283.685 880.292 283.372 881.216 282.744C882.151 282.117 882.618 281.342 882.618 280.418C882.618 279.637 882.316 278.992 881.713 278.483C881.121 277.974 880.198 277.583 878.943 277.311L874.291 276.335C871.675 275.79 869.739 274.873 868.485 273.582C867.23 272.28 866.609 270.635 866.62 268.646C866.609 266.965 867.064 265.509 867.988 264.278C868.923 263.036 870.219 262.077 871.876 261.402C873.545 260.715 875.469 260.372 877.647 260.372C880.843 260.372 883.358 261.053 885.193 262.414C887.039 263.775 888.182 265.616 888.62 267.936ZM908.124 260.727V265.699H892.446V260.727H908.124ZM896.317 254.193H902.744V279.797C902.744 280.661 902.875 281.324 903.135 281.786C903.407 282.235 903.762 282.543 904.2 282.709C904.638 282.875 905.124 282.957 905.656 282.957C906.059 282.957 906.426 282.928 906.757 282.869C907.1 282.809 907.361 282.756 907.538 282.709L908.621 287.734C908.278 287.852 907.787 287.982 907.148 288.124C906.52 288.266 905.751 288.349 904.839 288.373C903.23 288.42 901.78 288.178 900.489 287.645C899.199 287.1 898.175 286.26 897.418 285.124C896.672 283.987 896.305 282.567 896.317 280.862V254.193ZM925.103 288.533C922.44 288.533 920.132 287.947 918.178 286.775C916.225 285.603 914.71 283.964 913.633 281.857C912.568 279.75 912.035 277.287 912.035 274.47C912.035 271.653 912.568 269.185 913.633 267.066C914.71 264.947 916.225 263.302 918.178 262.13C920.132 260.958 922.44 260.372 925.103 260.372C927.767 260.372 930.075 260.958 932.028 262.13C933.981 263.302 935.49 264.947 936.556 267.066C937.633 269.185 938.171 271.653 938.171 274.47C938.171 277.287 937.633 279.75 936.556 281.857C935.49 283.964 933.981 285.603 932.028 286.775C930.075 287.947 927.767 288.533 925.103 288.533ZM925.139 283.384C926.583 283.384 927.79 282.987 928.761 282.194C929.731 281.389 930.454 280.312 930.927 278.962C931.412 277.613 931.655 276.11 931.655 274.452C931.655 272.783 931.412 271.274 930.927 269.925C930.454 268.563 929.731 267.48 928.761 266.675C927.79 265.871 926.583 265.468 925.139 265.468C923.659 265.468 922.428 265.871 921.445 266.675C920.475 267.48 919.747 268.563 919.262 269.925C918.788 271.274 918.551 272.783 918.551 274.452C918.551 276.11 918.788 277.613 919.262 278.962C919.747 280.312 920.475 281.389 921.445 282.194C922.428 282.987 923.659 283.384 925.139 283.384ZM943.627 288V260.727H949.77V265.362H950.09C950.658 263.799 951.599 262.58 952.913 261.704C954.227 260.816 955.795 260.372 957.618 260.372C959.465 260.372 961.021 260.822 962.288 261.722C963.566 262.609 964.466 263.823 964.987 265.362H965.271C965.875 263.846 966.893 262.639 968.325 261.739C969.769 260.828 971.48 260.372 973.456 260.372C975.966 260.372 978.014 261.165 979.6 262.751C981.186 264.338 981.979 266.652 981.979 269.694V288H975.534V270.688C975.534 268.996 975.084 267.759 974.184 266.977C973.285 266.184 972.184 265.788 970.882 265.788C969.331 265.788 968.118 266.273 967.242 267.244C966.378 268.202 965.946 269.451 965.946 270.99V288H959.642V270.422C959.642 269.013 959.216 267.889 958.364 267.048C957.524 266.208 956.423 265.788 955.061 265.788C954.138 265.788 953.298 266.024 952.54 266.498C951.783 266.96 951.179 267.616 950.729 268.469C950.279 269.309 950.054 270.292 950.054 271.416V288H943.627ZM988.5 288V260.727H994.927V288H988.5ZM991.731 256.857C990.713 256.857 989.837 256.519 989.104 255.844C988.37 255.158 988.003 254.335 988.003 253.376C988.003 252.406 988.37 251.583 989.104 250.908C989.837 250.222 990.713 249.879 991.731 249.879C992.761 249.879 993.637 250.222 994.359 250.908C995.093 251.583 995.46 252.406 995.46 253.376C995.46 254.335 995.093 255.158 994.359 255.844C993.637 256.519 992.761 256.857 991.731 256.857ZM1001.18 288V283.916L1015.24 266.285V266.054H1001.64V260.727H1023.11V265.113L1009.72 282.442V282.673H1023.57V288H1001.18ZM1040.91 288.533C1038.17 288.533 1035.81 287.964 1033.82 286.828C1031.84 285.68 1030.32 284.058 1029.26 281.963C1028.19 279.856 1027.66 277.376 1027.66 274.523C1027.66 271.718 1028.19 269.256 1029.26 267.137C1030.34 265.006 1031.84 263.349 1033.77 262.165C1035.7 260.97 1037.96 260.372 1040.57 260.372C1042.25 260.372 1043.84 260.644 1045.33 261.189C1046.83 261.722 1048.16 262.55 1049.3 263.675C1050.46 264.799 1051.38 266.232 1052.04 267.972C1052.7 269.7 1053.03 271.759 1053.03 274.151V276.121H1030.68V271.789H1046.87C1046.86 270.558 1046.59 269.463 1046.07 268.504C1045.55 267.534 1044.82 266.77 1043.89 266.214C1042.97 265.657 1041.89 265.379 1040.66 265.379C1039.34 265.379 1038.19 265.699 1037.19 266.338C1036.2 266.965 1035.43 267.794 1034.87 268.824C1034.32 269.842 1034.05 270.96 1034.03 272.18V275.962C1034.03 277.548 1034.32 278.909 1034.9 280.045C1035.48 281.17 1036.3 282.034 1037.34 282.638C1038.38 283.23 1039.6 283.526 1040.99 283.526C1041.93 283.526 1042.78 283.395 1043.53 283.135C1044.29 282.863 1044.95 282.466 1045.5 281.945C1046.06 281.424 1046.48 280.779 1046.77 280.01L1052.77 280.685C1052.39 282.271 1051.67 283.656 1050.6 284.839C1049.55 286.011 1048.2 286.923 1046.55 287.574C1044.91 288.213 1043.02 288.533 1040.91 288.533ZM1058.47 288V260.727H1064.7V265.273H1064.99C1065.48 263.698 1066.34 262.485 1067.54 261.633C1068.76 260.769 1070.15 260.337 1071.72 260.337C1072.07 260.337 1072.47 260.354 1072.91 260.39C1073.36 260.414 1073.73 260.455 1074.02 260.514V266.427C1073.75 266.332 1073.32 266.249 1072.73 266.178C1072.15 266.095 1071.59 266.054 1071.04 266.054C1069.87 266.054 1068.82 266.308 1067.88 266.817C1066.96 267.315 1066.23 268.007 1065.7 268.895C1065.16 269.783 1064.9 270.807 1064.9 271.967V288H1058.47Z" fill="white"/>
<path d="M1249 215C1249 201.193 1260.19 190 1274 190H1624C1637.81 190 1649 201.193 1649 215V865C1649 878.807 1637.81 890 1624 890H1274C1260.19 890 1249 878.807 1249 865V215Z" fill="#2D3748"/>
<path d="M1402.42 285.479C1400.28 285.479 1398.36 284.929 1396.67 283.828C1394.98 282.727 1393.64 281.129 1392.66 279.034C1391.68 276.939 1391.18 274.394 1391.18 271.399C1391.18 268.369 1391.68 265.812 1392.68 263.729C1393.68 261.634 1395.04 260.053 1396.74 258.988C1398.45 257.911 1400.35 257.372 1402.44 257.372C1404.04 257.372 1405.35 257.644 1406.38 258.189C1407.41 258.722 1408.23 259.367 1408.83 260.124C1409.44 260.87 1409.9 261.574 1410.24 262.237H1410.5V248.636H1416.95V285H1410.63V280.703H1410.24C1409.9 281.366 1409.42 282.07 1408.8 282.816C1408.17 283.55 1407.34 284.177 1406.31 284.698C1405.28 285.219 1403.99 285.479 1402.42 285.479ZM1404.22 280.206C1405.58 280.206 1406.74 279.839 1407.7 279.105C1408.66 278.359 1409.38 277.324 1409.88 275.998C1410.38 274.672 1410.63 273.127 1410.63 271.364C1410.63 269.6 1410.38 268.067 1409.88 266.765C1409.4 265.463 1408.67 264.451 1407.71 263.729C1406.77 263.007 1405.6 262.646 1404.22 262.646C1402.78 262.646 1401.59 263.018 1400.63 263.764C1399.67 264.51 1398.95 265.54 1398.46 266.854C1397.98 268.168 1397.74 269.671 1397.74 271.364C1397.74 273.068 1397.98 274.589 1398.46 275.927C1398.96 277.253 1399.69 278.3 1400.65 279.07C1401.62 279.827 1402.81 280.206 1404.22 280.206ZM1435.69 285.533C1433.03 285.533 1430.72 284.947 1428.77 283.775C1426.82 282.603 1425.3 280.964 1424.22 278.857C1423.16 276.75 1422.62 274.287 1422.62 271.47C1422.62 268.653 1423.16 266.185 1424.22 264.066C1425.3 261.947 1426.82 260.302 1428.77 259.13C1430.72 257.958 1433.03 257.372 1435.69 257.372C1438.36 257.372 1440.66 257.958 1442.62 259.13C1444.57 260.302 1446.08 261.947 1447.15 264.066C1448.22 266.185 1448.76 268.653 1448.76 271.47C1448.76 274.287 1448.22 276.75 1447.15 278.857C1446.08 280.964 1444.57 282.603 1442.62 283.775C1440.66 284.947 1438.36 285.533 1435.69 285.533ZM1435.73 280.384C1437.17 280.384 1438.38 279.987 1439.35 279.194C1440.32 278.389 1441.04 277.312 1441.52 275.962C1442 274.613 1442.24 273.11 1442.24 271.452C1442.24 269.783 1442 268.274 1441.52 266.925C1441.04 265.563 1440.32 264.48 1439.35 263.675C1438.38 262.871 1437.17 262.468 1435.73 262.468C1434.25 262.468 1433.02 262.871 1432.04 263.675C1431.06 264.48 1430.34 265.563 1429.85 266.925C1429.38 268.274 1429.14 269.783 1429.14 271.452C1429.14 273.11 1429.38 274.613 1429.85 275.962C1430.34 277.312 1431.06 278.389 1432.04 279.194C1433.02 279.987 1434.25 280.384 1435.73 280.384ZM1466.11 285.533C1463.39 285.533 1461.05 284.935 1459.1 283.739C1457.16 282.544 1455.66 280.893 1454.61 278.786C1453.57 276.667 1453.04 274.228 1453.04 271.47C1453.04 268.7 1453.58 266.256 1454.64 264.137C1455.71 262.006 1457.21 260.349 1459.15 259.165C1461.11 257.97 1463.41 257.372 1466.08 257.372C1468.29 257.372 1470.25 257.781 1471.95 258.597C1473.67 259.402 1475.04 260.545 1476.06 262.024C1477.07 263.492 1477.65 265.208 1477.8 267.173H1471.65C1471.4 265.859 1470.81 264.764 1469.88 263.888C1468.95 263.001 1467.72 262.557 1466.17 262.557C1464.85 262.557 1463.7 262.912 1462.7 263.622C1461.71 264.321 1460.93 265.327 1460.38 266.641C1459.83 267.955 1459.56 269.529 1459.56 271.364C1459.56 273.222 1459.83 274.82 1460.38 276.158C1460.92 277.483 1461.69 278.507 1462.67 279.229C1463.66 279.94 1464.83 280.295 1466.17 280.295C1467.11 280.295 1467.96 280.117 1468.71 279.762C1469.46 279.395 1470.1 278.868 1470.61 278.182C1471.11 277.495 1471.46 276.661 1471.65 275.678H1477.8C1477.64 277.608 1477.07 279.318 1476.09 280.81C1475.11 282.289 1473.77 283.449 1472.08 284.29C1470.39 285.118 1468.4 285.533 1466.11 285.533ZM1504.63 264.936L1498.77 265.575C1498.6 264.983 1498.31 264.427 1497.9 263.906C1497.5 263.385 1496.95 262.965 1496.27 262.646C1495.58 262.326 1494.74 262.166 1493.75 262.166C1492.41 262.166 1491.28 262.456 1490.37 263.036C1489.47 263.616 1489.03 264.368 1489.04 265.291C1489.03 266.084 1489.32 266.729 1489.91 267.227C1490.51 267.724 1491.51 268.132 1492.89 268.452L1497.54 269.446C1500.13 270.002 1502.04 270.884 1503.3 272.092C1504.56 273.299 1505.2 274.879 1505.22 276.832C1505.2 278.549 1504.7 280.064 1503.71 281.378C1502.72 282.68 1501.36 283.698 1499.6 284.432C1497.85 285.166 1495.84 285.533 1493.57 285.533C1490.23 285.533 1487.54 284.834 1485.51 283.438C1483.47 282.029 1482.26 280.07 1481.87 277.56L1488.13 276.957C1488.42 278.188 1489.02 279.117 1489.95 279.744C1490.87 280.372 1492.07 280.685 1493.55 280.685C1495.08 280.685 1496.3 280.372 1497.23 279.744C1498.16 279.117 1498.63 278.342 1498.63 277.418C1498.63 276.637 1498.33 275.992 1497.72 275.483C1497.13 274.974 1496.21 274.583 1494.95 274.311L1490.3 273.335C1487.68 272.79 1485.75 271.873 1484.49 270.582C1483.24 269.28 1482.62 267.635 1482.63 265.646C1482.62 263.965 1483.07 262.509 1484 261.278C1484.93 260.036 1486.23 259.077 1487.89 258.402C1489.55 257.715 1491.48 257.372 1493.66 257.372C1496.85 257.372 1499.37 258.053 1501.2 259.414C1503.05 260.775 1504.19 262.616 1504.63 264.936Z" fill="white"/>
</svg>
